<svg xmlns="http://www.w3.org/2000/svg" xmlns:xlink="http://www.w3.org/1999/xlink" width="1500" zoomAndPan="magnify" viewBox="0 0 1125 1124.99995" height="1500" preserveAspectRatio="xMidYMid meet" version="1.0"><defs><g/><clipPath id="id1"><path d="M 90 177 L 1039 177 L 1039 1125 L 90 1125 Z M 90 177 " clip-rule="nonzero"/></clipPath><clipPath id="id2"><path d="M 0.00390625 562.492188 L 562.855469 -0.359375 L 1125.703125 562.492188 L 562.855469 1125.34375 Z M 0.00390625 562.492188 " clip-rule="nonzero"/></clipPath><clipPath id="id3"><path d="M -2.019531 560.46875 L 560.832031 -2.382812 L 1127.15625 563.941406 L 564.304688 1126.792969 Z M -2.019531 560.46875 " clip-rule="nonzero"/></clipPath><clipPath id="id4"><path d="M 85 87 L 1034 87 L 1034 1036 L 85 1036 Z M 85 87 " clip-rule="nonzero"/></clipPath><clipPath id="id5"><path d="M 0.00390625 562.492188 L 562.855469 -0.359375 L 1125.703125 562.492188 L 562.855469 1125.34375 Z M 0.00390625 562.492188 " clip-rule="nonzero"/></clipPath><clipPath id="id6"><path d="M -2.019531 560.46875 L 560.832031 -2.382812 L 1127.15625 563.941406 L 564.304688 1126.792969 Z M -2.019531 560.46875 " clip-rule="nonzero"/></clipPath><clipPath id="id7"><path d="M 86 0 L 1036 0 L 1036 947 L 86 947 Z M 86 0 " clip-rule="nonzero"/></clipPath><clipPath id="id8"><path d="M 0.00390625 562.492188 L 562.855469 -0.359375 L 1125.703125 562.492188 L 562.855469 1125.34375 Z M 0.00390625 562.492188 " clip-rule="nonzero"/></clipPath><clipPath id="id9"><path d="M -2.019531 560.46875 L 560.832031 -2.382812 L 1127.15625 563.941406 L 564.304688 1126.792969 Z M -2.019531 560.46875 " clip-rule="nonzero"/></clipPath></defs><g clip-path="url(#id1)"><g clip-path="url(#id2)"><g clip-path="url(#id3)"><path fill="#ffffff" d="M 1038.554688 652.023438 L 564.042969 1126.53125 L 90.019531 652.507812 L 564.53125 177.996094 Z M 564.050781 1111.398438 L 1023.417969 652.03125 L 564.523438 193.132812 L 105.15625 652.5 Z M 564.050781 1111.398438 " fill-opacity="1" fill-rule="nonzero"/></g></g></g><g clip-path="url(#id4)"><g clip-path="url(#id5)"><g clip-path="url(#id6)"><path fill="#ffffff" d="M 1033.554688 561.207031 L 559.046875 1035.71875 L 85.019531 561.695312 L 559.53125 87.183594 Z M 559.054688 1020.582031 L 1018.421875 561.214844 L 559.523438 102.320312 L 100.15625 561.6875 Z M 559.054688 1020.582031 " fill-opacity="1" fill-rule="nonzero"/></g></g></g><g clip-path="url(#id7)"><g clip-path="url(#id8)"><g clip-path="url(#id9)"><path fill="#ffffff" d="M 1035.117188 471.902344 L 560.605469 946.414062 L 86.582031 472.390625 L 561.089844 -2.121094 Z M 560.613281 931.277344 L 1019.980469 471.910156 L 561.082031 13.015625 L 101.71875 472.382812 Z M 560.613281 931.277344 " fill-opacity="1" fill-rule="nonzero"/></g></g></g><g fill="#ffffff" fill-opacity="1"><g transform="translate(383.001796, 759.145418)"><g><path d="M 181.625 6.015625 C 132.675781 6.015625 93.390625 -8.082031 63.765625 -36.28125 C 34.140625 -64.476562 19.328125 -102.550781 19.328125 -150.5 C 19.328125 -198.445312 34.140625 -236.445312 63.765625 -264.5 C 93.390625 -292.550781 133.535156 -306.578125 184.203125 -306.578125 C 207.109375 -306.578125 229.296875 -304.359375 250.765625 -299.921875 C 272.234375 -295.492188 289.550781 -289.984375 302.71875 -283.390625 L 303.578125 -209.546875 L 299.71875 -209.546875 C 292.269531 -237.304688 279.53125 -257.410156 261.5 -269.859375 C 243.46875 -282.316406 222 -288.546875 197.09375 -288.546875 C 162.457031 -288.546875 135.832031 -276.164062 117.21875 -251.40625 C 98.613281 -226.644531 89.3125 -192.722656 89.3125 -149.640625 C 89.3125 -106.554688 97.828125 -72.847656 114.859375 -48.515625 C 131.890625 -24.179688 156.007812 -12.015625 187.21875 -12.015625 C 209.832031 -12.015625 228.722656 -18.457031 243.890625 -31.34375 C 251.335938 -37.925781 256.773438 -45.65625 260.203125 -54.53125 L 260.203125 -120.234375 C 260.203125 -126.523438 258.269531 -131.316406 254.40625 -134.609375 C 250.550781 -137.898438 245.039062 -139.546875 237.875 -139.546875 L 231.015625 -139.546875 L 231.015625 -143.84375 L 351.671875 -143.84375 L 351.671875 -139.546875 L 345.234375 -139.546875 C 338.359375 -139.546875 333.0625 -137.898438 329.34375 -134.609375 C 325.625 -131.316406 323.765625 -126.523438 323.765625 -120.234375 L 323.765625 -49.375 C 312.597656 -34.78125 294.128906 -21.898438 268.359375 -10.734375 C 242.597656 0.429688 213.6875 6.015625 181.625 6.015625 Z M 181.625 6.015625 "/></g></g></g></svg>